<svg width="96" height="96" viewBox="0 0 490 490" fill="none" xmlns="http://www.w3.org/2000/svg">
<path d="M343.682 238.152C338.015 238.152 333.427 238.034 329.919 237.797L307.25 237.443C282.421 237.443 270.007 240.044 270.007 245.245C271.627 245.245 273.111 246.191 274.46 248.083C276.079 249.974 276.889 252.812 276.889 256.595C276.889 263.688 274.325 268.89 269.198 272.2C264.34 275.274 258.943 276.811 253.006 276.811C245.719 276.811 240.457 274.801 237.218 270.781C233.98 266.525 232.36 261.56 232.36 255.885C232.36 246.191 236.813 237.679 245.719 230.349C254.625 222.783 266.769 219 282.152 219H421L281.342 461.947C288.898 461.947 294.701 462.065 298.749 462.301L320.203 462.656C331.538 462.656 340.714 462.183 347.73 461.237C355.017 460.055 359.874 457.927 362.303 454.853C360.414 454.853 358.66 454.026 357.041 452.371C355.691 450.479 355.017 447.642 355.017 443.859C355.017 436.765 357.445 431.564 362.303 428.253C367.161 424.943 372.828 423.288 379.305 423.288C386.322 423.288 391.449 425.298 394.688 429.317C398.196 433.337 399.95 438.184 399.95 443.859C399.95 450.006 397.791 456.272 393.473 462.656C389.155 469.04 382.948 474.36 374.852 478.616C367.026 482.872 358.12 485 348.135 485H202L343.682 238.152Z" fill="url(#paint0_linear_12_3)"/>
<path d="M248.075 335C238.577 335 229.185 332.111 219.898 326.333C210.822 320.778 199.214 312.111 185.073 300.333C174.52 291.444 165.444 284.222 157.846 278.667C150.459 273.333 142.333 268.778 133.469 265C124.815 261.222 115.951 259.333 106.875 259.333C103.709 259.333 101.282 259.444 99.5936 259.667L146.766 28.6667C132.625 34.6667 121.649 43.8889 113.84 56.3333C106.242 68.5556 102.443 83.5556 102.443 101.333C102.443 109.556 103.182 115.333 104.659 118.667C106.136 121.778 106.875 123.556 106.875 124C95.4779 124 86.93 121.556 81.2314 116.667C75.7438 111.556 73 103.222 73 91.6667C73 77.4444 78.4876 63.6667 89.4627 50.3333C100.649 36.7778 114.895 25.8889 132.202 17.6667C149.509 9.22222 166.816 5 184.123 5C187.078 5 191.299 5.22222 196.787 5.66666L148.032 245C153.942 246.556 159.957 248.778 166.078 251.667C172.409 254.778 180.008 258.889 188.872 264C202.591 271.778 214.305 277.667 224.014 281.667C233.722 285.889 243.853 288 254.406 288C263.904 288 272.769 286.222 281 282.667C279.312 298.889 275.512 311.667 269.603 321C263.904 330.333 256.728 335 248.075 335Z" fill="url(#paint1_linear_12_3)"/>
<defs>
<linearGradient id="paint0_linear_12_3" x1="311.5" y1="219" x2="311.5" y2="485" gradientUnits="userSpaceOnUse">
<stop stop-color="#04402F"/>
<stop offset="1" stop-color="#0AA67A"/>
</linearGradient>
<linearGradient id="paint1_linear_12_3" x1="177" y1="5" x2="177" y2="335" gradientUnits="userSpaceOnUse">
<stop stop-color="#034959"/>
<stop offset="1" stop-color="#069DBF"/>
</linearGradient>
</defs>
</svg>
